<svg xmlns="http://www.w3.org/2000/svg" viewBox="0 0 100 100">
  <!-- 배경 -->
  <rect width="100" height="100" rx="20" fill="#667eea"/>

  <!-- 키보드 베이스 -->
  <rect x="15" y="35" width="70" height="40" rx="4" fill="#ffffff" opacity="0.95"/>

  <!-- 키캡들 -->
  <!-- 첫 번째 행 -->
  <rect x="20" y="40" width="6" height="6" rx="1" fill="#5568d3"/>
  <rect x="28" y="40" width="6" height="6" rx="1" fill="#5568d3"/>
  <rect x="36" y="40" width="6" height="6" rx="1" fill="#5568d3"/>
  <rect x="44" y="40" width="6" height="6" rx="1" fill="#5568d3"/>
  <rect x="52" y="40" width="6" height="6" rx="1" fill="#5568d3"/>
  <rect x="60" y="40" width="6" height="6" rx="1" fill="#5568d3"/>
  <rect x="68" y="40" width="6" height="6" rx="1" fill="#5568d3"/>
  <rect x="76" y="40" width="6" height="6" rx="1" fill="#5568d3"/>

  <!-- 두 번째 행 -->
  <rect x="20" y="48" width="6" height="6" rx="1" fill="#5568d3"/>
  <rect x="28" y="48" width="6" height="6" rx="1" fill="#5568d3"/>
  <rect x="36" y="48" width="6" height="6" rx="1" fill="#5568d3"/>
  <rect x="44" y="48" width="6" height="6" rx="1" fill="#5568d3"/>
  <rect x="52" y="48" width="6" height="6" rx="1" fill="#5568d3"/>
  <rect x="60" y="48" width="6" height="6" rx="1" fill="#5568d3"/>
  <rect x="68" y="48" width="6" height="6" rx="1" fill="#5568d3"/>
  <rect x="76" y="48" width="6" height="6" rx="1" fill="#5568d3"/>

  <!-- 세 번째 행 -->
  <rect x="20" y="56" width="8" height="6" rx="1" fill="#5568d3"/>
  <rect x="30" y="56" width="6" height="6" rx="1" fill="#5568d3"/>
  <rect x="38" y="56" width="6" height="6" rx="1" fill="#5568d3"/>
  <rect x="46" y="56" width="6" height="6" rx="1" fill="#5568d3"/>
  <rect x="54" y="56" width="6" height="6" rx="1" fill="#5568d3"/>
  <rect x="62" y="56" width="6" height="6" rx="1" fill="#5568d3"/>
  <rect x="70" y="56" width="12" height="6" rx="1" fill="#5568d3"/>

  <!-- 스페이스바 -->
  <rect x="30" y="64" width="40" height="6" rx="1" fill="#764ba2"/>
</svg>
