<svg xmlns="http://www.w3.org/2000/svg" viewBox="0 0 360 140">
    <defs>
        <linearGradient id="caseGrad" x1="0" y1="0" x2="0" y2="1">
            <stop offset="0%" stop-color="#EBECEF"/>
            <stop offset="100%" stop-color="#D8DBE2"/>
        </linearGradient>

        <linearGradient id="keyBeige" x1="0" y1="0" x2="0" y2="1">
            <stop offset="0%" stop-color="#FDFDF8"/>
            <stop offset="100%" stop-color="#F4F4EB"/>
        </linearGradient>
        <linearGradient id="keyPink" x1="0" y1="0" x2="0" y2="1">
            <stop offset="0%" stop-color="#F7E1E6"/>
            <stop offset="100%" stop-color="#EDC9D2"/>
        </linearGradient>
        <linearGradient id="keyDarkBlue" x1="0" y1="0" x2="0" y2="1">
            <stop offset="0%" stop-color="#4C5372"/>
            <stop offset="100%" stop-color="#3A405C"/>
        </linearGradient>

        <filter id="shadow" x="-5%" y="-5%" width="115%" height="115%">
            <feDropShadow dx="0" dy="1" stdDeviation="0.8" flood-color="rgba(0,0,0,0.15)"/>
        </filter>
    </defs>

    <rect x="10" y="10" width="347" height="118" rx="10" fill="url(#caseGrad)" stroke="#C9CED6" stroke-width="1.2"/>

    <g transform="translate(336, 20)">
        <rect x="0" y="0" width="14" height="16" rx="1.5" fill="#222"/>
        <rect x="1.5" y="1.5" width="7" height="13" rx="0.5" fill="#000"/>
        <path d="M3.5 5.5 C3.5 4.5 4.5 3.5 5.2 3.5 C6 3.5 6.5 4 6.5 4.5 C6.5 4 7 3.5 7.8 3.5 C8.5 3.5 9.5 4.5 9.5 5.5 C9.5 7.5 6.5 9.5 6.5 9.5 C6.5 9.5 3.5 7.5 3.5 5.5 Z"
              fill="#FF3E3E" transform="scale(0.6) translate(1, 2)"/>
    </g>

    <g filter="url(#shadow)">
        <rect x="20" y="20" width="18" height="16" rx="3" fill="url(#keyDarkBlue)"/>
        <rect x="42" y="20" width="18" height="16" rx="3" fill="url(#keyBeige)"/><rect x="64" y="20" width="18" height="16" rx="3" fill="url(#keyBeige)"/>
        <rect x="86" y="20" width="18" height="16" rx="3" fill="url(#keyBeige)"/><rect x="108" y="20" width="18" height="16" rx="3" fill="url(#keyBeige)"/>
        <rect x="130" y="20" width="18" height="16" rx="3" fill="url(#keyBeige)"/><rect x="152" y="20" width="18" height="16" rx="3" fill="url(#keyBeige)"/>
        <rect x="174" y="20" width="18" height="16" rx="3" fill="url(#keyBeige)"/><rect x="196" y="20" width="18" height="16" rx="3" fill="url(#keyBeige)"/>
        <rect x="218" y="20" width="18" height="16" rx="3" fill="url(#keyBeige)"/><rect x="240" y="20" width="18" height="16" rx="3" fill="url(#keyBeige)"/>
        <rect x="262" y="20" width="18" height="16" rx="3" fill="url(#keyBeige)"/><rect x="284" y="20" width="18" height="16" rx="3" fill="url(#keyBeige)"/>
        <rect x="306" y="20" width="28" height="16" rx="3" fill="url(#keyPink)"/>

        <rect x="20" y="40" width="24" height="16" rx="3" fill="url(#keyPink)"/>
        <rect x="48" y="40" width="18" height="16" rx="3" fill="url(#keyBeige)"/><rect x="70" y="40" width="18" height="16" rx="3" fill="url(#keyBeige)"/>
        <rect x="92" y="40" width="18" height="16" rx="3" fill="url(#keyBeige)"/><rect x="114" y="40" width="18" height="16" rx="3" fill="url(#keyBeige)"/>
        <rect x="136" y="40" width="18" height="16" rx="3" fill="url(#keyBeige)"/><rect x="158" y="40" width="18" height="16" rx="3" fill="url(#keyBeige)"/>
        <rect x="180" y="40" width="18" height="16" rx="3" fill="url(#keyBeige)"/><rect x="202" y="40" width="18" height="16" rx="3" fill="url(#keyBeige)"/>
        <rect x="224" y="40" width="18" height="16" rx="3" fill="url(#keyBeige)"/><rect x="246" y="40" width="18" height="16" rx="3" fill="url(#keyBeige)"/>
        <rect x="268" y="40" width="18" height="16" rx="3" fill="url(#keyBeige)"/><rect x="290" y="40" width="18" height="16" rx="3" fill="url(#keyBeige)"/>
        <rect x="312" y="40" width="22" height="16" rx="3" fill="url(#keyBeige)"/>

        <g transform="translate(336, 40)">
            <rect width="18" height="16" rx="4" fill="#FADADD"/>
            <circle cx="4" cy="3" r="2.3" fill="#FADADD"/> <circle cx="12" cy="3" r="2.3" fill="#FADADD"/>
            <circle cx="5" cy="8" r="0.7" fill="#444"/> <circle cx="11" cy="8" r="0.7" fill="#444"/>
            <ellipse cx="8" cy="11" rx="1.5" ry="1" fill="#F6AAB5"/>
        </g>

        <rect x="20" y="60" width="30" height="16" rx="3" fill="url(#keyPink)"/>
        <rect x="54" y="60" width="18" height="16" rx="3" fill="url(#keyBeige)"/><rect x="76" y="60" width="18" height="16" rx="3" fill="url(#keyBeige)"/>
        <rect x="98" y="60" width="18" height="16" rx="3" fill="url(#keyBeige)"/><rect x="120" y="60" width="18" height="16" rx="3" fill="url(#keyBeige)"/>
        <rect x="142" y="60" width="18" height="16" rx="3" fill="url(#keyBeige)"/><rect x="164" y="60" width="18" height="16" rx="3" fill="url(#keyBeige)"/>
        <rect x="186" y="60" width="18" height="16" rx="3" fill="url(#keyBeige)"/><rect x="208" y="60" width="18" height="16" rx="3" fill="url(#keyBeige)"/>
        <rect x="230" y="60" width="18" height="16" rx="3" fill="url(#keyBeige)"/><rect x="252" y="60" width="18" height="16" rx="3" fill="url(#keyBeige)"/>
        <rect x="274" y="60" width="18" height="16" rx="3" fill="url(#keyBeige)"/>
        <rect x="296" y="60" width="36" height="16" rx="3" fill="url(#keyDarkBlue)"/>

        <g transform="translate(336, 60)">
            <rect width="18" height="16" rx="4" fill="#F8C8D3"/>
            <circle cx="4" cy="3" r="2.3" fill="#F8C8D3"/> <circle cx="12" cy="3" r="2.3" fill="#F8C8D3"/>
            <circle cx="5" cy="8" r="0.7" fill="#444"/> <circle cx="11" cy="8" r="0.7" fill="#444"/>
            <circle cx="3" cy="10" r="1.3" fill="#FFB6C1" opacity="0.7"/> <circle cx="13" cy="10" r="1.3" fill="#FFB6C1" opacity="0.7"/>
        </g>

        <rect x="20" y="80" width="40" height="16" rx="3" fill="url(#keyPink)"/>
        <rect x="64" y="80" width="18" height="16" rx="3" fill="url(#keyBeige)"/><rect x="86" y="80" width="18" height="16" rx="3" fill="url(#keyBeige)"/>
        <rect x="108" y="80" width="18" height="16" rx="3" fill="url(#keyBeige)"/><rect x="130" y="80" width="18" height="16" rx="3" fill="url(#keyBeige)"/>
        <rect x="152" y="80" width="18" height="16" rx="3" fill="url(#keyBeige)"/><rect x="174" y="80" width="18" height="16" rx="3" fill="url(#keyBeige)"/>
        <rect x="196" y="80" width="18" height="16" rx="3" fill="url(#keyBeige)"/>
        <rect x="218" y="80" width="18" height="16" rx="3" fill="url(#keyBeige)"/>

        <rect x="240" y="80" width="18" height="16" rx="3" fill="url(#keyBeige)"/>
        <rect x="262" y="80" width="18" height="16" rx="3" fill="url(#keyBeige)"/>
        <rect x="283" y="80" width="28" height="16" rx="3" fill="url(#keyPink)"/>
        <rect x="314" y="80" width="18" height="16" rx="3" fill="url(#keyPink)"/>
        <rect x="335" y="80" width="18" height="16" rx="3" fill="url(#keyPink)"/>

        <rect x="20" y="100" width="22" height="16" rx="3" fill="url(#keyPink)"/>
        <rect x="46" y="100" width="22" height="16" rx="3" fill="url(#keyPink)"/>
        <rect x="72" y="100" width="22" height="16" rx="3" fill="url(#keyPink)"/>

        <rect x="98" y="100" width="133" height="16" rx="4" fill="url(#keyDarkBlue)"/>

        <rect x="235" y="100" width="22" height="16" rx="3" fill="url(#keyPink)"/>
        <rect x="260" y="100" width="22" height="16" rx="3" fill="url(#keyPink)"/>
        <rect x="275" y="100" width="16" height="16" rx="3" fill="transparent"/>

        <rect x="292" y="100" width="18" height="16" rx="3" fill="url(#keyPink)"/>
        <rect x="314" y="100" width="18" height="16" rx="3" fill="url(#keyPink)"/>
        <rect x="335" y="100" width="18" height="16" rx="3" fill="url(#keyPink)"/>
    </g>
</svg>